<svg id="Capa_1" height="512" viewBox="0 0 512 512" width="512" xmlns="http://www.w3.org/2000/svg"><g><g><path d="m288.042 307.634 29.92 29.92c10.704 10.704 28.459 9.471 37.481-2.684 23.818-32.091 37.904-71.828 37.904-114.849l-35.79-22.016-33.224 22.016z" fill="#00d1b3"/><path d="m200.428 96.106-20.052-33.448 20.052-35.565c53.272 0 101.5 21.591 136.409 56.51v.009l-6.35 40.567-42.446 8.218z" fill="#fbf4ad"/><path d="m76.514 220.02-30.254 22.279-38.76-22.279c0-53.272 21.591-101.5 56.51-136.409l41.311 7.961 7.485 40.825z" fill="#ffa875"/><path d="m45.01 223.26c0-51.369 17.636-98.324 46.772-134.297l-27.772-5.352c-34.919 34.909-56.51 83.137-56.51 136.409l38.76 22.278.065-.047c-.849-6.254-1.315-12.586-1.315-18.991z" fill="#ff995d"/><path d="m112.805 132.397-48.795-48.786v-.009c34.909-34.919 83.136-56.51 136.418-56.51v69.014z" fill="#fdd89f"/><path d="m76.514 220.02h-69.014c0 43.022 14.086 82.758 37.904 114.849 9.022 12.155 26.777 13.388 37.481 2.684l29.92-29.92z" fill="#ff8997"/><path d="m288.042 132.397 48.795-48.786c34.919 34.909 56.51 83.136 56.51 136.409h-69.014z" fill="#50e1cd"/><path d="m324.333 220.02c0 34.218-13.867 65.19-36.291 87.614s-53.395 36.291-87.614 36.291c-34.218 0-65.199-13.867-87.623-36.291s-36.291-53.395-36.291-87.614 13.867-65.199 36.291-87.623 53.405-36.291 87.623-36.291 65.19 13.867 87.614 36.291 36.291 53.405 36.291 87.623z" fill="#d6d6d6"/><path d="m189.594 194.037 53.001-39.516c7.381-5.503 17.825-3.981 23.328 3.4 4.51 6.049 4.286 14.17 0 19.928l-39.516 53.001c-8.684 11.647-25.165 14.049-36.813 5.366-13.907-10.37-14.301-31.401 0-42.179z" fill="#ff8997"/><path d="m480.846 296.74c-4.047-5.362-12.55-3.315-13.766 3.292-2.231 12.12-8.094 28.308-23.088 40.972 3.338-70.127-44.437-60.08-33.566-129.159.957-6.083-5.158-10.801-10.792-8.314-20.456 9.031-57.325 34.579-57.325 101.42-14.889-12.538-20.32-27.894-22.206-39.081-1.062-6.301-8.819-8.739-13.234-4.12-14.13 14.785-23.961 33.437-29.865 53.032-11.842 39.301-9.603 82.498 13.23 117.449 21.358 32.692 57.688 52.677 96.799 52.677 64.874 0 117.464-52.591 117.464-117.465.003-26.545-8.802-51.033-23.651-70.703z" fill="#fdd89f"/><path d="m45.01 223.26c0-1.083.023-2.161.038-3.24h-37.548c0 43.021 14.086 82.758 37.904 114.849 9.022 12.155 26.777 13.388 37.481 2.684l4.757-4.757c-25.028-31.687-42.632-69.251-42.632-109.536z" fill="#ff6f7f"/><g fill="#fbc072"><path d="m176.218 28.6c-43.6 5.458-82.672 25.457-112.209 55.001v.009l18.195 18.192c23.265-33.835 55.998-59.731 94.014-73.202z"/><path d="m413.948 462.174c-66.789 0-120.932-41.498-120.932-117.359 0-31.323 9.237-60.19 24.777-83.298-2.904-2.751-7.763-3.073-10.922.232-14.13 14.785-23.961 33.437-29.865 53.032-11.842 39.301-9.603 82.498 13.23 117.449 21.358 32.692 57.688 52.677 96.799 52.677 32.06 0 61.114-12.849 82.309-33.672-16.596 7.228-35.43 10.939-55.396 10.939z"/></g></g><g><path d="m238.125 148.512-52.999 39.514c-.01.008-.021.016-.031.023-18.218 13.73-17.984 40.747.031 54.178 14.912 11.119 36.141 8.079 47.306-6.895l39.518-53.004c6.334-8.51 6.332-20.389-.004-28.887-7.965-10.682-23.137-12.895-33.821-4.929zm21.797 24.857-39.514 52.999c-6.198 8.313-18.003 10.033-26.316 3.836-9.974-7.436-10.205-22.444.017-30.164l52.982-39.502c4.053-3.022 9.81-2.183 12.831 1.871 2.403 3.223 2.402 7.732 0 10.96z"/><path d="m312.426 373.953v12.897c0 4.142 3.358 7.5 7.5 7.5s7.5-3.358 7.5-7.5v-12.897c0-4.142-3.358-7.5-7.5-7.5s-7.5 3.358-7.5 7.5z"/><path d="m446.658 373.953v12.897c0 4.142 3.358 7.5 7.5 7.5s7.5-3.358 7.5-7.5v-12.897c0-4.142-3.358-7.5-7.5-7.5s-7.5 3.358-7.5 7.5z"/><path d="m399.082 381.539c-3.039 3.488-7.428 5.489-12.04 5.489s-9.001-2-12.041-5.489c-2.722-3.123-7.458-3.448-10.582-.727-3.122 2.721-3.448 7.459-.727 10.581 5.889 6.758 14.4 10.633 23.349 10.633s17.46-3.876 23.349-10.634c2.721-3.122 2.396-7.86-.727-10.581-3.122-2.721-7.86-2.395-10.581.728z"/><path d="m88.208 342.852 24.769-24.769c24.101 21.549 54.874 33.337 87.466 33.337 22.865 0 44.761-5.775 64.285-16.79-14.545 88.412 45.157 157.766 122.314 157.766 21.644 0 42.979-5.628 61.697-16.277 3.6-2.048 4.858-6.627 2.81-10.227s-6.628-4.858-10.227-2.81c-16.462 9.365-35.232 14.315-54.281 14.315-74.047 0-129.326-72.566-102.843-160.455 3.337-11.073 7.871-21.39 13.417-30.617 6.965-11.586 13.138-17.551 14.767-19.465.045-.008.168.012.256.083.671.533 1.828 24.354 24.849 43.741 3.075 2.587 7.811 2.316 10.529-.86 2.658-3.106 1.403-4.82 2.19-16.181 2.582-36.922 19.03-68.492 52.463-83.25.203-.09.391.049.354.287-11.435 72.662 36.659 63.234 33.482 129.962-.31 6.527 7.333 10.306 12.331 6.086 16.909-14.283 23.267-32.541 25.622-45.342.014-.078.032-.117.036-.124.048-.057.236-.105.292-.091 0 0 .028.02.076.083 14.483 19.187 22.138 42.072 22.138 66.182 0 29.8-11.732 57.701-33.036 78.563-2.959 2.898-3.009 7.646-.111 10.605s7.646 3.009 10.605.111c24.21-23.705 37.542-55.411 37.542-89.277 0-27.397-8.702-53.407-25.166-75.218-7.982-10.574-24.729-6.573-27.127 6.452-1.2 6.521-3.662 14.772-8.67 22.835-5.518-53.399-42.487-49.46-33.197-108.494 1.686-10.713-7.972-19.664-18.471-17.252-11.912-98.306-95.397-176.158-198.927-176.158-74.081 0-137.324 39.776-171.929 97.393-2.133 3.551-.983 8.158 2.567 10.291s8.158.982 10.291-2.568c6.534-10.878 14.173-21.072 22.767-30.388 7.868 7.866 30.741 30.735 38.227 38.22-19.435 21.734-31.417 49.557-33.122 79.971h-54.073c.825-20.857 5.094-41.179 12.723-60.513 1.52-3.853-.371-8.209-4.223-9.729-3.853-1.52-8.209.371-9.729 4.223-24.193 61.316-17.633 134.768 25.463 192.832 11.743 15.823 34.865 17.457 48.804 3.517zm181.301-29.136c-20.106 14.864-43.932 22.706-69.067 22.706-103.085 0-155.807-125.221-82.316-198.716 45.206-45.204 118.856-45.767 164.623 0 30.853 30.854 40.864 74.692 29.657 114.135-3.954.01-8.042 1.688-10.945 4.725 0 0-.001.001-.002.002-15.14 15.841-25.743 36.044-31.95 57.148zm-61.568-278.966c44.223 1.748 85.7 18.93 118.198 48.968-3.579 3.579-28.886 28.88-38.235 38.227-22.178-19.834-50.115-31.445-79.963-33.122zm117.813 224.885c3.302-10.477 5.278-21.347 5.876-32.114h26.1c-12.868 17.057-19.587 37.306-21.931 58.801-4.022-6.301-6.93-13.636-8.29-21.699-.295-1.747-.949-3.55-1.755-4.988zm45.931-47.113h-40.053c-1.667-29.744-13.24-57.74-33.122-79.971 4.646-4.645 33.424-33.416 38.228-38.22 27.569 29.879 44.555 67.958 48.304 108.404-4.462 2.727-9.219 6.183-13.357 9.787zm-178.743-177.772v54.072c-30.047 1.69-57.972 13.443-79.972 33.123l-38.234-38.227c32.498-30.037 73.979-47.22 118.206-48.968zm-123.699 192.771c1.664 29.699 13.248 57.754 33.122 79.962l-24.763 24.763c-7.489 7.488-19.884 6.597-26.154-1.85-22.339-30.098-34.805-65.524-36.278-102.875z"/></g></g></svg>